<svg xmlns="http://www.w3.org/2000/svg" viewBox="0 0 150 150"><defs><style>.cls-1{fill:#a6cb66;}</style></defs><title>Безымянный-1</title><g id="Слой_2" data-name="Слой 2"><path class="cls-1" d="M72.83,20.23a51,51,0,1,0,51,51A51,51,0,0,0,72.83,20.23ZM119,57.53a47.88,47.88,0,0,1,1.53,7.11l-1.74.24A45.67,45.67,0,0,0,117.26,58Zm-5.74-12.42a47.51,47.51,0,0,1,3.48,6.38l-1.6.72a45.74,45.74,0,0,0-3.36-6.14ZM92.67,27.43a48.15,48.15,0,0,1,6.38,3.5l-1,1.48A45.2,45.2,0,0,0,92,29ZM79.53,23.62a49.4,49.4,0,0,1,7.1,1.55l-.5,1.69a46,46,0,0,0-6.85-1.49Zm-6.7-.46h.27l0,1.76h-.25a47.19,47.19,0,0,0-6.73.49l-.26-1.74A47.94,47.94,0,0,1,72.83,23.16ZM59.54,25,60,26.71a48.34,48.34,0,0,0-6.56,2.44l-.74-1.59A47.36,47.36,0,0,1,59.54,25ZM47.06,30.64,48,32.12a45.9,45.9,0,0,0-5.62,4.2L41.24,35A47.38,47.38,0,0,1,47.06,30.64Zm-10.39,8.9L38,40.7a46.81,46.81,0,0,0-4.21,5.6l-1.48-.95A48.21,48.21,0,0,1,36.67,39.54ZM29.19,51l1.59.75a46.2,46.2,0,0,0-2.46,6.56l-1.69-.49A48.66,48.66,0,0,1,29.19,51ZM24.72,71.27a48.64,48.64,0,0,1,.53-7.15l1.74.26a47.87,47.87,0,0,0-.51,6.89l-1.76.09Zm2,13.64a47.88,47.88,0,0,1-1.53-7.11l1.75-.24a46.89,46.89,0,0,0,1.46,6.85ZM32.4,97.34A48.59,48.59,0,0,1,28.93,91l1.6-.72a46.94,46.94,0,0,0,3.35,6.15Zm9,10.33a49,49,0,0,1-5.13-5.16l1.34-1.14a47.3,47.3,0,0,0,4.94,5Zm11.52,7.39a47.59,47.59,0,0,1-6.37-3.51l1-1.47a47,47,0,0,0,6.14,3.38ZM66,118.9a48.84,48.84,0,0,1-7.1-1.56l.5-1.69a45.72,45.72,0,0,0,6.85,1.5Zm6.79.47h-.36v-1.76h.35a47.39,47.39,0,0,0,6.64-.47l.25,1.74A48,48,0,0,1,72.83,119.37ZM86,117.54l-.48-1.69a46.65,46.65,0,0,0,6.57-2.43l.73,1.6A47.27,47.27,0,0,1,86,117.54Zm9.7-37.4a14,14,0,0,1-14,14h-.35v4.14h-9V94.17H68.65v4.14h-9V94.17H53.07v-9h4.47V55.57H53.07v-9h6.57V41.49h9v5.07h3.69V41.49h9V46.6a13.52,13.52,0,0,1,12.7,13.48v.74a13.38,13.38,0,0,1-2.84,8.25,14,14,0,0,1,4.52,10.28ZM98.52,112l-.94-1.49a47.31,47.31,0,0,0,5.62-4.18l1.15,1.33A48.17,48.17,0,0,1,98.52,112Zm4.54-75.81,1.15-1.34A49,49,0,0,1,109.35,40L108,41.1A46.36,46.36,0,0,0,103.06,36.14Zm5.87,66.93-1.32-1.17a45.89,45.89,0,0,0,4.22-5.58l1.48,1A49.25,49.25,0,0,1,108.93,103.07Zm7.5-11.45-1.59-.74a46,46,0,0,0,2.47-6.56l1.69.49A47.82,47.82,0,0,1,116.43,91.62Zm2.22-13.37a46.37,46.37,0,0,0,.53-7v-.2h1.76v.18a48.91,48.91,0,0,1-.55,7.27Z"/><path class="cls-1" d="M85,60.82v-.74a4.51,4.51,0,0,0-4.5-4.51h-14v9.75h14A4.51,4.51,0,0,0,85,60.82Z"/><path class="cls-1" d="M81.7,74.33H66.55V85.16H81.7a5,5,0,0,0,5-5v-.79A5,5,0,0,0,81.7,74.33Z"/><circle class="cls-1" cx="10.13" cy="27.72" r="5.24"/><circle class="cls-1" cx="133.03" cy="117.68" r="12.09"/></g></svg>