<svg xmlns="http://www.w3.org/2000/svg" viewBox="0 0 150 150"><defs><style>.cls-1{fill:#edf0f7;}.cls-2{fill:#706f6f;}</style></defs><title>Безымянный-1</title><g id="Слой_1" data-name="Слой 1"><rect class="cls-1" x="-311.54" y="-2013.64" width="2366.62" height="1473.6"/></g><g id="Слой_2" data-name="Слой 2"><path class="cls-2" d="M127,103.46a7.5,7.5,0,1,1,4-9.78,7.52,7.52,0,0,1-4,9.78Z"/><path class="cls-2" d="M118.79,141.21a7.49,7.49,0,1,1,4-9.82,7.53,7.53,0,0,1-4,9.82Z"/><path class="cls-2" d="M32.62,119.21a3.73,3.73,0,0,1-2.9-6.88,3.76,3.76,0,0,1,4.91,2,3.71,3.71,0,0,1-2,4.87Z"/><path class="cls-2" d="M123.35,94.81a1.87,1.87,0,0,0-1.18-1.47L106.35,86.9a35.81,35.81,0,0,0-.15-23.74l0,0,6.88-2.9.3-.15A5.59,5.59,0,1,0,112,56.67c-.1,0-.2,0-.29.1l-6.93,2.9,0,0A35.45,35.45,0,0,0,87.87,43v0l3.54-8.65a2.34,2.34,0,0,1,.09-.24,7.45,7.45,0,0,0,3.94-.49,7.5,7.5,0,1,0-9.83-4,7.26,7.26,0,0,0,2.45,3.09.36.36,0,0,0-.09.2l-3.54,8.7h-.05a35.6,35.6,0,0,0-23.69.14l0,0L53.46,24.63a4.69,4.69,0,1,0-7.72-1.42A4.64,4.64,0,0,0,50,26.06l7.18,17.1v.05A35.39,35.39,0,0,0,40.53,60.06h-.05l-8.65-3.53-.24-.1a7.16,7.16,0,0,0-.49-3.88,7.48,7.48,0,1,0-.89,7.32.26.26,0,0,0,.2.1l8.65,3.54,0,.05a35.35,35.35,0,0,0,.15,23.73h0l-6.88,2.9-.3.15a5.61,5.61,0,0,0-9.34,5.94,5.61,5.61,0,0,0,10.77-2.55.72.72,0,0,0,.29-.1l6.93-2.9h0a35.3,35.3,0,0,0,16.86,16.66v0l-3.54,8.7s0,.1-.1.2a7.35,7.35,0,0,0-3.93.54,7.53,7.53,0,1,0,7.37.88c0-.1.1-.15.1-.25L61,108.87v-.05a35.5,35.5,0,0,0,23.74-.15l0,0L87,114a5.58,5.58,0,1,0,3.44-1.48l-2.21-5.26a35.38,35.38,0,0,0,16.66-16.9l15.83,6.49a2,2,0,0,0,1.87-.25A1.91,1.91,0,0,0,123.35,94.81Zm-67-46.74a6.92,6.92,0,0,1,.44-.59,3,3,0,0,1,.59-.39A2,2,0,0,1,58.82,47a3.62,3.62,0,0,1,.64.44,1.91,1.91,0,0,1,.39,2,2,2,0,0,1-1,1,1.87,1.87,0,0,1-2.61-1.72A3.86,3.86,0,0,1,56.36,48.07Zm-8.7,39.66a2.07,2.07,0,0,1-1,1,2.86,2.86,0,0,1-.69.1,1.89,1.89,0,0,1-.74-.1,2.07,2.07,0,0,1-1-1,1.51,1.51,0,0,1-.15-.68,1.92,1.92,0,0,1,.15-.74,1.89,1.89,0,0,1,.39-.59,1.93,1.93,0,0,1,.64-.44,2,2,0,0,1,1.43,0,2.44,2.44,0,0,1,.59.44A1.89,1.89,0,0,1,47.66,87.73Zm3.64-10a5.6,5.6,0,1,1,3-7.32A5.53,5.53,0,0,1,51.3,77.71Zm4.08-16.12a1.93,1.93,0,0,1-1-1,2.2,2.2,0,0,1-.14-.74,3.76,3.76,0,0,1,.1-.74,2.2,2.2,0,0,1,.44-.59,1.64,1.64,0,0,1,.59-.39,2,2,0,0,1,1.42,0,1.72,1.72,0,0,1,.59.44,1.87,1.87,0,0,1-.54,3.05,1.88,1.88,0,0,1-1.47,0Zm6.68,38.53a2,2,0,0,1-1,1,1.91,1.91,0,0,1-.69.15,3.39,3.39,0,0,1-.74-.1,2.15,2.15,0,0,1-1-1,2,2,0,0,1-.15-.74,1.55,1.55,0,0,1,.15-.69,1.86,1.86,0,0,1,.4-.59,2.47,2.47,0,0,1,.58-.44,1.9,1.9,0,0,1,1.48,0,5,5,0,0,1,.59.39A2,2,0,0,1,62.06,100.12Zm-.69-12.29A3.73,3.73,0,0,1,58.47,81a3.79,3.79,0,0,1,4.92,2A3.75,3.75,0,0,1,61.37,87.83Zm7.57-36.71a5.62,5.62,0,1,1-3,7.37A5.61,5.61,0,0,1,68.94,51.12Zm3.84,32.34a2,2,0,0,1-1,1,1.57,1.57,0,0,1-.69.1,1.28,1.28,0,0,1-.74-.1,2.1,2.1,0,0,1-1-1,2.86,2.86,0,0,1-.1-.69,3.76,3.76,0,0,1,.1-.74,1.75,1.75,0,0,1,.44-.59,1.39,1.39,0,0,1,.59-.44,2.33,2.33,0,0,1,1.43,0,1.36,1.36,0,0,1,.58.44A1.82,1.82,0,0,1,72.78,83.46Zm1.52,22.06a5.6,5.6,0,1,1,3-7.32A5.59,5.59,0,0,1,74.3,105.52Zm5.8-57.94a1.54,1.54,0,0,1-.69-.1,1.92,1.92,0,0,1-1-1,1.52,1.52,0,0,1-.15-.69,1.91,1.91,0,0,1,.15-.73,1.78,1.78,0,0,1,.39-.59,2.2,2.2,0,0,1,.59-.44,1.9,1.9,0,0,1,1.48,0,3.34,3.34,0,0,1,.59.39,2,2,0,0,1,.44,2.06,2,2,0,0,1-1,1A2,2,0,0,1,80.1,47.58Zm3.2,19a1.52,1.52,0,0,1-.69-.15,2,2,0,0,1-1-1,1.88,1.88,0,0,1,0-1.47,3,3,0,0,1,.39-.59,4.1,4.1,0,0,1,.59-.4A2.25,2.25,0,0,1,84,63a4,4,0,0,1,.59.45,1.93,1.93,0,0,1,.45,2A1.95,1.95,0,0,1,83.3,66.6Zm6.09,33.81a3.73,3.73,0,0,1-2.9-6.88,3.73,3.73,0,1,1,2.9,6.88ZM88,59.53a5.61,5.61,0,1,1,7.32,3A5.63,5.63,0,0,1,88,59.53ZM99.22,89.6a2,2,0,0,1-1,1,2,2,0,0,1-.74.15,2.94,2.94,0,0,1-.69-.1,2.11,2.11,0,0,1-1-1,1.92,1.92,0,0,1-.15-.74,1.51,1.51,0,0,1,.15-.68,1.78,1.78,0,0,1,.39-.59,2.5,2.5,0,0,1,.59-.45,2,2,0,0,1,1.48,0,4.1,4.1,0,0,1,.59.4A2,2,0,0,1,99.22,89.6Zm.89-13.22a3.73,3.73,0,1,1,2-4.91A3.77,3.77,0,0,1,100.11,76.38Z"/><circle class="cls-2" cx="128.35" cy="13.18" r="4.97"/></g></svg>