<svg xmlns="http://www.w3.org/2000/svg" viewBox="0 0 150 150"><defs><style>.cls-1{fill:#f7b500;}</style></defs><title>Безымянный-1</title><g id="Слой_2" data-name="Слой 2"><path class="cls-1" d="M63.57,37.16v21c0,5.64-6.16,5.13-6.16.51V43.19c0-3.6-1-9.59-2.68-9.59S52,39.59,52,43.19V58.71c0,4.62-6.15,5.13-6.15-.51v-21C41,39.21,40.57,53.92,40.57,64.07c0,10.62,5.74,14.66,10.75,14.66,0,0-4.4,31.08-4.4,41.86s3.66,14.88,7.81,14.88,7.81-4.1,7.81-14.88-4.4-41.86-4.4-41.86c5,0,10.75-4,10.75-14.66C68.89,53.92,68.46,39.21,63.57,37.16Z"/><path class="cls-1" d="M115.6,56.46c-.15-11.8-8.54-22.86-15.38-22.86S85,44.66,84.84,56.46c-.25,18.92,12,17.54,12,22.27,0,0-4.4,31.08-4.4,41.86s3.67,14.88,7.81,14.88,7.81-4.1,7.81-14.88-4.4-41.86-4.4-41.86C103.63,74,115.85,75.38,115.6,56.46Z"/><path class="cls-1" d="M120,31.29a7.2,7.2,0,1,0,7.19-7.53A7.33,7.33,0,0,0,120,31.29Z"/><path class="cls-1" d="M22.47,21.45a5.9,5.9,0,0,0-5.83-5.94,6,6,0,0,0,.08,12A5.94,5.94,0,0,0,22.47,21.45Z"/><path class="cls-1" d="M28.91,125.78a8.78,8.78,0,0,0-8.7-8.87,8.94,8.94,0,0,0,.11,17.86A8.8,8.8,0,0,0,28.91,125.78Z"/><path class="cls-1" d="M127.14,92.67a2.9,2.9,0,1,1-2.91-3A2.95,2.95,0,0,1,127.14,92.67Z"/><path class="cls-1" d="M96.13,19a2.9,2.9,0,1,1-2.91-3A2.95,2.95,0,0,1,96.13,19Z"/><path class="cls-1" d="M15.76,75a2.9,2.9,0,1,1-2.92-3A2.95,2.95,0,0,1,15.76,75Z"/></g></svg>