<svg xmlns="http://www.w3.org/2000/svg" xmlns:xlink="http://www.w3.org/1999/xlink" viewBox="0 0 150 150"><defs><style>.cls-1{fill:#edf0f7;}.cls-2{clip-path:url(#clip-path);}.cls-3{fill:url(#Degradado_sin_nombre_3);}.cls-4{fill:#ea8e44;}</style><clipPath id="clip-path"><rect class="cls-1" x="-959.42" y="-2004.25" width="2366.62" height="1473.6"/></clipPath><linearGradient id="Degradado_sin_nombre_3" x1="252.17" y1="-543.29" x2="920.6" y2="125.14" gradientUnits="userSpaceOnUse"><stop offset="0" stop-color="#ff974f"/><stop offset="0.56" stop-color="#ff5652"/></linearGradient></defs><title>Безымянный-1</title><g id="Слой_1" data-name="Слой 1"><rect class="cls-1" x="-959.42" y="-2004.25" width="2366.62" height="1473.6"/><g class="cls-2"><ellipse class="cls-3" cx="586.39" cy="-209.07" rx="468.53" ry="476.73"/></g></g><g id="Слой_2" data-name="Слой 2"><path class="cls-4" d="M103.54,103.86A45.91,45.91,0,0,1,111.22,96a4.34,4.34,0,0,0-2-.47,8.06,8.06,0,0,0-3.16.76c-2.15.94-3.73,2.8-5.73,5.16-1.13,1.34-2.41,2.86-4,4.41a28.12,28.12,0,0,1-9.24,5.55c-1.28.52-2.65,1-4.08,1.46h.08l4,.42.19,0a40.89,40.89,0,0,0,4.34-1.66A87.81,87.81,0,0,0,103.54,103.86Z"/><path class="cls-4" d="M116.36,101.81c2.9-2.4,6.1-5,9.41-6.42-2-1.26-4.07-1.4-6.76-.52s-4.11,2.09-11,7.87c-4.18,3.49-11.59,8.69-15.53,10.58-.22.11-.45.22-.7.32l.72,0,.57,0,1.45.07c.51,0,1,0,1.57,0l.52,0,1.11,0,.65-.07,1-.1.71-.11c.32,0,.64-.08,1-.14,3.51-2.21,10.83-7.9,13.39-9.93Z"/><path class="cls-4" d="M117.55,103.25c-.67.55-1.32,1.09-2,1.58-.07.06-5.27,4.19-9.68,7.39l.49-.13.31-.09c.81-.23,1.61-.48,2.39-.73l.17-.06,1-.34.2-.06,1-.37.06,0,2.16-.82.07,0,.92-.37.08,0c1-.39,1.81-.76,2.55-1.08l.1,0,.61-.27.07,0,.59-.26a33.42,33.42,0,0,0,5.88-3.93,55.45,55.45,0,0,1,8.67-5.73,5.41,5.41,0,0,0-4.13-1.48C125.3,96.86,121.18,100.26,117.55,103.25Z"/><path class="cls-4" d="M136.81,98.62a3.69,3.69,0,0,0-1.43.29,48.12,48.12,0,0,0-9.64,6.14,34.46,34.46,0,0,1-6.25,4.15c-3.13,1.38-10.44,4.63-17.94,5.92a36.91,36.91,0,0,1-6.12.56l-1,0c-2-.08-4.46-.24-7.1-.48-3-.28-6.19-.65-9.12-1.07-12.08-1.73-13.23-3.32-13.61-3.84a1.49,1.49,0,0,1-.23-1.64c.45-.89,1.7-1,2.85-1a44.2,44.2,0,0,1,6.91.84l.1,0a26.82,26.82,0,0,0,7.06,1.08,11.62,11.62,0,0,0,4.7-.84,6.56,6.56,0,0,0,.9-.49c1.1-.7,2.36-1.81,2.08-3a2.4,2.4,0,0,0-1.52-1.61c-.62-.08-2.63-.54-6.14-1.35-3.87-.9-8.69-2-11.78-2.59-1-.19-2.07-.43-3.2-.67A55.89,55.89,0,0,0,54.25,97.3a28.16,28.16,0,0,0-5.82.58l-1.18.24c-7.89,1.62-15.33,3.15-21.14,13.11a40.66,40.66,0,0,0-2.21,4.65,28.62,28.62,0,0,1-4.44,7.9,61.78,61.78,0,0,1-5.42,5.1c-2.76,2.42-6.89,6-7.11,7.46.69.69,5.08,2.9,13.07,1.88,20.76-2.65,25.12-8.58,42.54-8.57,1.69,0,3.48.09,5.3.09,13.49,0,46.66-1.72,63.2-17.67,3-2.86,8.6-9.1,10.42-11.12C140.57,100.1,138.75,98.62,136.81,98.62Z"/><path class="cls-4" d="M105.72,48.38c-6.57,0-11,4.76-14,6.92-3-2.16-6-7-14-6.92-9.82.06-14.37,7.2-14.37,16.81,0,12.6,21.51,25.13,28.4,30.91,6.62-5.68,28.4-19.18,28.4-30.91C120.14,55.58,115.49,48.38,105.72,48.38ZM68.39,60.86a1,1,0,1,1,1-1A1,1,0,0,1,68.39,60.86ZM72,58.3A2.27,2.27,0,1,1,74.23,56,2.27,2.27,0,0,1,72,58.3Z"/><circle class="cls-4" cx="25.94" cy="41.76" r="5.13"/><circle class="cls-4" cx="141.46" cy="75" r="1.61"/><circle class="cls-4" cx="42.01" cy="20.84" r="9.32"/></g></svg>