<?xml version="1.0" encoding="utf-8"?>
<!-- Generator: Adobe Illustrator 24.0.1, SVG Export Plug-In . SVG Version: 6.00 Build 0)  -->
<svg version="1.1" id="Слой_1" xmlns="http://www.w3.org/2000/svg" xmlns:xlink="http://www.w3.org/1999/xlink" x="0px" y="0px"
	 viewBox="0 0 180 130" style="enable-background:new 0 0 180 130;" xml:space="preserve">
<style type="text/css">
	.st0{fill:#C51415;}
	.st1{font-family:'AvantGardeCTT-Bold';}
	.st2{font-size:46.72px;}
	.st3{letter-spacing:4;}
	.st4{fill:#FFFFFF;}
	.st5{font-family:'MyriadPro-Regular';}
	.st6{font-size:52.1056px;}
	.st7{fill:none;stroke:#303030;stroke-width:2.51;stroke-linecap:round;stroke-linejoin:round;}
</style>
<title>Безымянный-1</title>
<g id="Слой_3">
	<text transform="matrix(1 0 0 1 31.93 113.2)" class="st0 st1 st2 st3">NEWS</text>
	<text transform="matrix(1 0 0 1 61.1191 71.6133)" class="st4 st5 st6">nline</text>
	<path class="st7" d="M44,36.5h4.3c5.8,0,10.5,4.7,10.5,10.5v17.2c0,5.8-4.7,10.5-10.5,10.5H44c-5.8,0-10.5-4.7-10.5-10.5V47
		C33.5,41.2,38.2,36.5,44,36.5z"/>
	<line class="st7" x1="33.6" y1="52.9" x2="58.8" y2="52.9"/>
	<line class="st7" x1="46.3" y1="42.3" x2="46.3" y2="47.1"/>
	<path class="st7" d="M46.2,35.7c0.2-8.2-6.2-14.9-14.4-15.1c-8.2-0.2-14.9,6.2-15.1,14.4c0,0.3,0,0.5,0,0.8v76.4"/>
</g>
</svg>
