<svg xmlns="http://www.w3.org/2000/svg" viewBox="0 0 150 150"><defs><style>.cls-1{fill:#b2b2b2;}</style></defs><title>Безымянный-1</title><g id="Слой_2" data-name="Слой 2"><path class="cls-1" d="M60.8,126.45a5.1,5.1,0,0,0,5.08,5.08H93.71a5.1,5.1,0,0,0,5.08-5.08v-3.7H60.89l-.09,3.7Z"/><rect class="cls-1" x="60.8" y="111.1" width="37.89" height="8.73"/><path class="cls-1" d="M68.07,55.7a4.39,4.39,0,1,0,0,8.77h4.39V60.08A4.39,4.39,0,0,0,68.07,55.7Z"/><path class="cls-1" d="M72.46,136.47a3.78,3.78,0,0,0,3.79,3.79h7A3.78,3.78,0,0,0,87,136.47v-2.06H72.46v2.06Z"/><path class="cls-1" d="M27.25,108.17a4.39,4.39,0,1,0,4.39,4.39A4.4,4.4,0,0,0,27.25,108.17Z"/><rect class="cls-1" x="75.38" y="67.35" width="8.73" height="40.82"/><path class="cls-1" d="M25.79,23.65a2.93,2.93,0,1,0-2.93-2.92A2.94,2.94,0,0,0,25.79,23.65Z"/><path class="cls-1" d="M130.78,54.23a2.93,2.93,0,1,0-2.92-2.92A2.89,2.89,0,0,0,130.78,54.23Z"/><path class="cls-1" d="M130.78,96.51a5.86,5.86,0,1,0,5.85,5.86A5.87,5.87,0,0,0,130.78,96.51Z"/><path class="cls-1" d="M95.77,60.08a4.39,4.39,0,0,0-8.78,0v4.39h4.39A4.39,4.39,0,0,0,95.77,60.08Z"/><path class="cls-1" d="M79.73,12h-.28A39.37,39.37,0,0,0,48.83,75.72a55.1,55.1,0,0,1,11.93,32.45h11.7V67.35H68.07a7.27,7.27,0,1,1,7.27-7.27v4.39h8.73V60.08a7.27,7.27,0,1,1,7.27,7.27H87v40.82H98.6A53.18,53.18,0,0,1,110.26,76,39.37,39.37,0,0,0,79.73,12Zm29,40.82a1.44,1.44,0,0,1-1.46-1.46A27.38,27.38,0,0,0,79.91,23.93h-.18a1.47,1.47,0,1,1,0-2.93,30.28,30.28,0,0,1,30.48,30.26A1.45,1.45,0,0,1,108.75,52.77Z"/></g></svg>