<svg xmlns="http://www.w3.org/2000/svg" viewBox="0 0 150 150"><defs><style>.cls-1{fill:#918675;}</style></defs><title>Безымянный-1</title><g id="Слой_2" data-name="Слой 2"><path class="cls-1" d="M83.76,50.5H63.32v49.6H83.71V98.82a42.39,42.39,0,0,1-2.92-14.54c0-4.43,1-8.09,2.92-10.83v-23ZM76.44,68h-5.8a1.46,1.46,0,1,1,0-2.92h5.85A1.44,1.44,0,0,1,78,66.55,1.48,1.48,0,0,1,76.44,68Zm0-8.73h-5.8a1.46,1.46,0,1,1,0-2.92h5.85A1.44,1.44,0,0,1,78,57.82,1.48,1.48,0,0,1,76.44,59.28Z"/><path class="cls-1" d="M86.5,98s0,.09,0,.18c3.47,9,9.46,16.5,14.53,16.5a15.34,15.34,0,0,0,3.66-.68,10.4,10.4,0,0,1,5.85,0,14.93,14.93,0,0,0,3.66.68c7.63,0,17.37-17.05,17.37-30.35,0-4-1-7.36-2.7-9.6-2-2.51-5.08-3.79-9.14-3.79a12.16,12.16,0,0,0-9,4l0,0A11.63,11.63,0,0,0,109,77.38a1.5,1.5,0,0,1-1.28.78,1.37,1.37,0,0,1-1.28-.78A12.22,12.22,0,0,0,95.64,71c-4.11,0-7.17,1.28-9.14,3.8-1.78,2.24-2.7,5.57-2.7,9.6A38.78,38.78,0,0,0,86.5,98Zm31.13-21.21c3.65,0,5.62,1.69,6.58,3.11,2.06,3,2.06,8,0,13.48a1.43,1.43,0,0,1-1.37.91,1.49,1.49,0,0,1-.5-.09,1.42,1.42,0,0,1-.83-1.87c1.69-4.39,1.83-8.64.32-10.79a4.71,4.71,0,0,0-4.16-1.83,1.44,1.44,0,0,1-1.46-1.46A1.41,1.41,0,0,1,117.63,76.79Z"/><path class="cls-1" d="M63.32,47.63H83.71V39.58A3.61,3.61,0,0,0,80.1,36H66.89a3.61,3.61,0,0,0-3.61,3.61v8.05Z"/><path class="cls-1" d="M46.5,114.68H56.79a3.62,3.62,0,0,0,3.61-3.61V94.25H42.89v16.82A3.68,3.68,0,0,0,46.5,114.68Z"/><path class="cls-1" d="M63.32,111.07a3.62,3.62,0,0,0,3.62,3.61H80.15a3.62,3.62,0,0,0,3.61-3.61v-8H63.32v8Z"/><rect class="cls-1" x="42.94" y="68.01" width="17.51" height="23.31"/><path class="cls-1" d="M60.4,48.31a3.61,3.61,0,0,0-3.61-3.61H46.5a3.62,3.62,0,0,0-3.61,3.61V65.13H60.4V48.31Z"/><path class="cls-1" d="M40,32.36a5.19,5.19,0,0,0-5.16-5.17h-16a5.19,5.19,0,0,0-5.16,5.17V44.7H40V32.36Z"/><path class="cls-1" d="M18.94,114.68h16a5.19,5.19,0,0,0,5.17-5.16V103H13.82v6.49A5.09,5.09,0,0,0,18.94,114.68Z"/><path class="cls-1" d="M107.66,73.91l.55-.69L109.81,63a2.11,2.11,0,0,0-.55-1.55,2.19,2.19,0,0,0-1.55-.69,2.06,2.06,0,0,0-1.56.69,1.9,1.9,0,0,0-.54,1.55l1.64,10.42C107.39,73.59,107.53,73.77,107.66,73.91Z"/><path class="cls-1" d="M40,48.31v-.68H13.78V100.1H40ZM22.51,78.2a1.47,1.47,0,1,1-2.93,0V57.82a1.47,1.47,0,0,1,2.93,0Z"/><path class="cls-1" d="M56.06,24.27A7.27,7.27,0,1,0,48.79,17,7.28,7.28,0,0,0,56.06,24.27Z"/><path class="cls-1" d="M124.58,50.5a8.73,8.73,0,1,0-8.73-8.73A8.73,8.73,0,0,0,124.58,50.5Z"/><path class="cls-1" d="M24,11.15A2.93,2.93,0,1,1,21,14.07,2.92,2.92,0,0,1,24,11.15Z"/><path class="cls-1" d="M76.44,19.92a2.93,2.93,0,1,1-2.92,2.93A2.93,2.93,0,0,1,76.44,19.92Z"/><path class="cls-1" d="M102.68,34.46a2.93,2.93,0,1,1-2.92,2.93A2.93,2.93,0,0,1,102.68,34.46Z"/><path class="cls-1" d="M102.68,124.87a2.93,2.93,0,1,1-2.92,2.93A2.93,2.93,0,0,1,102.68,124.87Z"/><path class="cls-1" d="M111.46,124.87a2.93,2.93,0,1,1-2.93,2.93A2.93,2.93,0,0,1,111.46,124.87Z"/><path class="cls-1" d="M131.84,17a2.93,2.93,0,1,1-2.92,2.92A2.93,2.93,0,0,1,131.84,17Z"/><path class="cls-1" d="M95.41,127.8A1.44,1.44,0,0,0,94,126.34H12.31a1.46,1.46,0,0,0,0,2.92H94A1.47,1.47,0,0,0,95.41,127.8Z"/><path class="cls-1" d="M140.62,138H64.79a1.47,1.47,0,1,0,0,2.93h75.78a1.47,1.47,0,0,0,.05-2.93Z"/></g></svg>