<svg xmlns="http://www.w3.org/2000/svg" viewBox="0 0 150 150"><defs><style>.cls-1{fill:#edf0f7;}.cls-2{fill:#dc4541;}</style></defs><title>Безымянный-1</title><g id="Слой_1" data-name="Слой 1"><rect class="cls-1" x="14.87" y="-2007.31" width="2366.62" height="1473.6"/></g><g id="Слой_2" data-name="Слой 2"><path class="cls-2" d="M74.13,19.62A59.29,59.29,0,0,1,56.62,61,59.3,59.3,0,0,1,15.3,78.5a56.44,56.44,0,0,0,15.59,37.11l80.36-80.35A56.41,56.41,0,0,0,74.13,19.62Zm7.22,33.14a1.42,1.42,0,0,1-1,.41,1.59,1.59,0,0,1-1-.41,1.48,1.48,0,0,1,0-2L91.64,38.32a1.45,1.45,0,0,1,2.06,2Z"/><path class="cls-2" d="M128.89,74.43A56.47,56.47,0,0,0,113.3,37.31L33,117.67a56.09,56.09,0,0,0,37.11,15.59,59.72,59.72,0,0,1,58.83-58.83ZM75.18,91.94,52.51,114.61a1.46,1.46,0,0,1-1,.41,1.62,1.62,0,0,1-1.05-.41,1.49,1.49,0,0,1,0-2.06L73.08,89.88a1.49,1.49,0,0,1,2.06,0A1.45,1.45,0,0,1,75.18,91.94Zm7.22-5.17a2.91,2.91,0,1,1,0-4.11A2.9,2.9,0,0,1,82.4,86.77Zm2.06-6.17a2.91,2.91,0,1,1,4.12,0A3,3,0,0,1,84.46,80.6Z"/><path class="cls-2" d="M71.21,19.62A56.76,56.76,0,0,0,15.3,75.57,56.55,56.55,0,0,0,54.61,58.93,56.51,56.51,0,0,0,71.21,19.62Z"/><path class="cls-2" d="M73,133.3a56.84,56.84,0,0,0,56-56A56.84,56.84,0,0,0,73,133.3Z"/><path class="cls-2" d="M21.06,26.89a4.39,4.39,0,1,0-4.39,4.39A4.39,4.39,0,0,0,21.06,26.89Z"/><path class="cls-2" d="M121.67,121.65a4.39,4.39,0,1,0,4.39,4.39A4.39,4.39,0,0,0,121.67,121.65Z"/><path class="cls-2" d="M131.86,16.7a5.85,5.85,0,1,0,5.85,5.85A5.86,5.86,0,0,0,131.86,16.7Z"/></g></svg>