<svg xmlns="http://www.w3.org/2000/svg" viewBox="0 0 150 150"><defs><style>.cls-1{fill:#ffcf1b;}</style></defs><title>Безымянный-1</title><g id="Слой_2" data-name="Слой 2"><path class="cls-1" d="M18.29,117.65a7.27,7.27,0,1,0,7.27,7.26A7.29,7.29,0,0,0,18.29,117.65Z"/><path class="cls-1" d="M12.48,40.35a2.93,2.93,0,1,1-2.92,2.93A2.93,2.93,0,0,1,12.48,40.35Z"/><path class="cls-1" d="M12.48,90a2.93,2.93,0,1,1-2.92,2.92A2.93,2.93,0,0,1,12.48,90Z"/><path class="cls-1" d="M126.16,138H98.46V120.89a58.74,58.74,0,0,0,11.66-9.09,59.82,59.82,0,0,0,0-84.52,1.45,1.45,0,1,0-2.06,2,56.88,56.88,0,0,1-11.79,89.46,1.45,1.45,0,0,0-.73,1.28v18H83.88V126a1.51,1.51,0,0,0-.55-1.14,1.46,1.46,0,0,0-1.23-.28,57.27,57.27,0,0,1-54.44-14.85,1.46,1.46,0,0,0-2.06,2.06,59.68,59.68,0,0,0,55.4,16V138H65A1.47,1.47,0,0,0,65,141h61.25a1.44,1.44,0,0,0,1.46-1.46A1.48,1.48,0,0,0,126.16,138Z"/><path class="cls-1" d="M32.92,104.48a49.46,49.46,0,1,0,0-69.93A49.12,49.12,0,0,0,32.92,104.48ZM79.54,82.63H57.69a2.93,2.93,0,1,0,0,5.85h2.93a5.86,5.86,0,0,1,0,11.71H50.42a1.47,1.47,0,0,1,0-2.93H60.57a2.93,2.93,0,1,0,0-5.85H57.64a5.85,5.85,0,0,1,0-11.7H79.49A1.45,1.45,0,0,1,81,81.17,1.41,1.41,0,0,1,79.54,82.63Zm-32.09-32h27.7a5.85,5.85,0,0,1,0,11.7H69.3a2.93,2.93,0,1,0,0,5.85h33.55a1.47,1.47,0,0,1,0,2.93H69.3a5.85,5.85,0,0,1,0-11.7h5.85a2.93,2.93,0,1,0,0-5.85H47.45A1.45,1.45,0,0,1,46,52.05,1.47,1.47,0,0,1,47.45,50.59Zm-8.73-1.46a2.93,2.93,0,1,1-2.92,2.92A2.94,2.94,0,0,1,38.72,49.13Z"/><path class="cls-1" d="M136.4,113.26a7.27,7.27,0,1,0-7.27,7.27A7.29,7.29,0,0,0,136.4,113.26Z"/><path class="cls-1" d="M25.6,30.16a8.73,8.73,0,1,0-8.73-8.73A8.73,8.73,0,0,0,25.6,30.16Z"/><path class="cls-1" d="M129.09,17A2.93,2.93,0,1,1,126.16,20,2.92,2.92,0,0,1,129.09,17Z"/><path class="cls-1" d="M97.05,14.11A2.93,2.93,0,1,1,94.12,17,2.93,2.93,0,0,1,97.05,14.11Z"/><path class="cls-1" d="M134.94,136.57A2.93,2.93,0,1,1,132,139.5,2.93,2.93,0,0,1,134.94,136.57Z"/></g></svg>