<svg xmlns="http://www.w3.org/2000/svg" viewBox="0 0 150 150"><defs><style>.cls-1{fill:#edf0f7;}.cls-2{fill:#706f6f;}</style></defs><title>Безымянный-1</title><g id="Слой_1" data-name="Слой 1"><rect class="cls-1" x="-635.42" y="-2006.96" width="2366.62" height="1473.6"/></g><g id="Слой_2" data-name="Слой 2"><path class="cls-2" d="M121.65,125.28a4.39,4.39,0,1,0,4.38,4.39A4.39,4.39,0,0,0,121.65,125.28Z"/><path class="cls-2" d="M12.31,105.44a8.2,8.2,0,0,0,8.18,8.18h109a8.2,8.2,0,0,0,8.18-8.18V99H12.31v6.4Zm112.26-2a2.93,2.93,0,1,1-2.92,2.92A2.91,2.91,0,0,1,124.57,103.39Zm-8.77,0a2.93,2.93,0,1,1-2.93,2.92A2.94,2.94,0,0,1,115.8,103.39Zm-8.73,0a2.93,2.93,0,1,1-2.93,2.92A2.94,2.94,0,0,1,107.07,103.39Z"/><path class="cls-2" d="M61.86,136.94h5.85v-10.2a1.46,1.46,0,1,1,2.92,0v10.2h8.74v-10.2a1.46,1.46,0,0,1,2.92,0v10.2h5.85V116.55H61.86v20.39Z"/><path class="cls-2" d="M111.45,69.15V13.93a47.33,47.33,0,0,0-18.19-3.79,37.94,37.94,0,0,0-16.77,3.79V69.15A47.21,47.21,0,0,1,93.63,66,51,51,0,0,1,111.45,69.15Zm-25.09-43,14.58-2.92a1.52,1.52,0,0,1,1.74,1.14,1.54,1.54,0,0,1-1.15,1.74L87,29.06c-.09,0-.18.05-.27.05a1.49,1.49,0,0,1-.32-2.93Zm0,8.73L100.94,32a1.52,1.52,0,0,1,1.74,1.14,1.54,1.54,0,0,1-1.15,1.74L87,37.79c-.09,0-.18.05-.27.05a1.49,1.49,0,0,1-.32-2.93Zm0,8.73,14.58-2.92a1.52,1.52,0,0,1,1.74,1.14,1.54,1.54,0,0,1-1.15,1.74L87,46.52c-.09,0-.18,0-.27,0a1.42,1.42,0,0,1-1.42-1.19A1.45,1.45,0,0,1,86.36,43.64Zm.27,11.66a1.41,1.41,0,0,1-1.41-1.19,1.52,1.52,0,0,1,1.14-1.74l14.58-2.92a1.52,1.52,0,0,1,1.74,1.14,1.54,1.54,0,0,1-1.15,1.74L87,55.25A.72.72,0,0,1,86.63,55.3Z"/><path class="cls-2" d="M73.51,69.15V13.93a38.09,38.09,0,0,0-16.77-3.79,47.33,47.33,0,0,0-18.19,3.79V69.15A51.75,51.75,0,0,1,56.42,66,45.92,45.92,0,0,1,73.51,69.15ZM47.32,24.4a1.48,1.48,0,0,1,1.74-1.14l14.58,2.92a1.48,1.48,0,0,1,1.14,1.74,1.46,1.46,0,0,1-1.41,1.19.56.56,0,0,1-.28-.05L48.51,26.14A1.5,1.5,0,0,1,47.32,24.4Zm0,8.73A1.48,1.48,0,0,1,49.06,32l14.58,2.92a1.48,1.48,0,0,1,1.14,1.74,1.45,1.45,0,0,1-1.41,1.19.56.56,0,0,1-.28-.05L48.51,34.87A1.5,1.5,0,0,1,47.32,33.13Zm0,8.73a1.48,1.48,0,0,1,1.74-1.14l14.58,2.92a1.48,1.48,0,0,1,1.14,1.74,1.45,1.45,0,0,1-1.41,1.19.56.56,0,0,1-.28,0L48.51,43.6A1.45,1.45,0,0,1,47.32,41.86Zm0,8.78a1.49,1.49,0,0,1,1.74-1.15l14.58,2.93a1.47,1.47,0,0,1,1.14,1.74,1.45,1.45,0,0,1-1.41,1.18.68.68,0,0,1-.28,0L48.51,52.37A1.49,1.49,0,0,1,47.32,50.64Z"/><path class="cls-2" d="M129.51,25.27H114.33V71.34a1.51,1.51,0,0,1-.68,1.24,1.58,1.58,0,0,1-1.42.09,47,47,0,0,0-18.65-3.8,43.79,43.79,0,0,0-18,3.8h0c-.09,0-.18,0-.23.09h0c-.09,0-.19,0-.28,0a.52.52,0,0,1-.27,0h-.09a.37.37,0,0,1-.23-.09h0a43.79,43.79,0,0,0-18-3.8,46.13,46.13,0,0,0-18.65,3.8,1.44,1.44,0,0,1-1.42-.09,1.51,1.51,0,0,1-.68-1.24V25.27H20.49a8.2,8.2,0,0,0-8.18,8.18v51H69.17a1.47,1.47,0,0,1,0,2.93H12.31v8.73H137.69V33.4A8.16,8.16,0,0,0,129.51,25.27ZM77.9,88.8a2.93,2.93,0,1,1,2.93-2.92A2.94,2.94,0,0,1,77.9,88.8Zm8.73,0a2.93,2.93,0,1,1,2.93-2.92A2.94,2.94,0,0,1,86.63,88.8Z"/><path class="cls-2" d="M25.43,131.09a4.39,4.39,0,1,0,4.39,4.38A4.39,4.39,0,0,0,25.43,131.09Z"/></g></svg>